<svg width="35" height="26" viewBox="0 0 35 26" fill="none" xmlns="http://www.w3.org/2000/svg">
<g clip-path="url(#clip0_418_4)">
<path d="M33 0.5H2C1.17157 0.5 0.5 1.17157 0.5 2V24C0.5 24.8284 1.17157 25.5 2 25.5H33C33.8284 25.5 34.5 24.8284 34.5 24V2C34.5 1.17157 33.8284 0.5 33 0.5Z" stroke="black" stroke-opacity="0.26"/>
<g filter="url(#filter0_d_418_4)">
<path d="M23.261 17.5786V16.2448H22.2355V15.0801H21.21V13.1766H20.1845V11.2291H19.159V9.46333H18.1335V8.53659H16.8609V9.46333H15.7922V11.2229H14.7667V13.1766H13.7412V15.0801H12.7157V16.2448H11.6902V17.5786H10.6585V19H11.6902H11.9311H12.7157H12.9628H13.7412H13.9883H14.7667H15.0138H15.7922H16.0393H16.8609H17.0648H17.8864H18.1335H18.9119H19.159H19.9374H20.1845H20.9629H21.21H21.9884H22.2355H23.0201H23.261H24.2927V17.5786H23.261ZM11.684 18.7495H10.9056V17.8291H11.684V18.7495ZM11.9373 18.7495V16.4953H12.7157V18.7495H11.9373ZM12.9628 18.7495V16.2448V15.3306H13.7412V18.7495H12.9628ZM14.7667 18.7495H13.9883V15.0801V13.427H14.7667V18.7495ZM15.0138 18.7495V11.4796H15.7922V18.7558H15.0138V18.7495ZM16.8177 18.7495H16.0393V11.2291V9.71379H16.8177V18.7495ZM17.108 18.7495V8.78705H17.8864V9.46333V18.7495H17.108ZM18.1335 18.7495V9.71379H18.9119V11.2229V18.7495H18.1335ZM19.9374 18.7495H19.159V11.4796H19.9374V18.7495ZM20.1845 18.7495V13.427H20.9629V15.0801V18.7495H20.1845ZM21.21 18.7495V15.3306H21.9884V16.2448V18.7495H21.21ZM23.0139 18.7495H22.2355V16.4953H23.0139V18.7495ZM24.0456 18.7495H23.2672V17.8291H24.0456V18.7495Z" fill="#021752"/>
<path d="M30.6284 19C27.3309 19 24.8155 17.9633 22.9472 15.8353C21.3547 14.021 20.5218 11.7224 19.8466 9.88091C19.1263 7.89613 18.6029 6.45697 17.5619 6.45697C16.5096 6.45697 15.868 7.9916 15.0633 9.92863C14.298 11.7702 13.347 14.0551 11.6869 15.8557C9.73988 17.9701 7.22444 19 4 19V18.5362C11.0398 18.5362 13.1613 13.448 14.7088 9.72402C15.581 7.64377 16.2619 6 17.5675 6C18.8674 6 19.4639 7.6301 20.2123 9.70357C21.5685 13.4344 23.4256 18.543 30.6341 18.543V19H30.6284Z" fill="#021752"/>
</g>
</g>
<defs>
<filter id="filter0_d_418_4" x="1" y="4" width="32.6342" height="19" filterUnits="userSpaceOnUse" color-interpolation-filters="sRGB">
<feFlood flood-opacity="0" result="BackgroundImageFix"/>
<feColorMatrix in="SourceAlpha" type="matrix" values="0 0 0 0 0 0 0 0 0 0 0 0 0 0 0 0 0 0 127 0" result="hardAlpha"/>
<feOffset dy="1"/>
<feGaussianBlur stdDeviation="1.5"/>
<feComposite in2="hardAlpha" operator="out"/>
<feColorMatrix type="matrix" values="0 0 0 0 0 0 0 0 0 0 0 0 0 0 0 0 0 0 0.15 0"/>
<feBlend mode="normal" in2="BackgroundImageFix" result="effect1_dropShadow_418_4"/>
<feBlend mode="normal" in="SourceGraphic" in2="effect1_dropShadow_418_4" result="shape"/>
</filter>
<clipPath id="clip0_418_4">
<rect width="35" height="26" fill="white"/>
</clipPath>
</defs>
</svg>
